999
CONDITIONAL INVENTORY - NOT CUT-READY - AS-DRAWN SHEET mm - NOT PART SCALE
0
SECTION
2
HEADER
9
$INSUNITS
70
4
0
ENDSEC
0
SECTION
2
ENTITIES
0
TEXT
8
STAMP
10
12.00
20
602.00
30
0
40
3.50
1
CONDITIONAL INVENTORY - NOT CUT-READY
72
0
0
TEXT
8
STAMP
10
12.00
20
608.00
30
0
40
3.50
1
AS-DRAWN A1 SHEET mm. NOT PART SCALE. UNDEVELOPED / NTS WHERE THE SVG SAYS SO.
72
0
0
TEXT
8
STAMP
10
12.00
20
614.00
30
0
40
3.50
1
DO NOT PLASMA. PRELIMINARY - VERIFY ON VEHICLE - NOT LTO-CERTIFIED.
72
0
0
LINE
8
AS-DRAWN
10
24.00
20
554.00
30
0
11
174.00
21
554.00
31
0
0
LINE
8
AS-DRAWN
10
174.00
20
554.00
30
0
11
174.00
21
458.00
31
0
0
LINE
8
AS-DRAWN
10
174.00
20
458.00
30
0
11
24.00
21
458.00
31
0
0
LINE
8
AS-DRAWN
10
24.00
20
458.00
30
0
11
24.00
21
554.00
31
0
0
LINE
8
AS-DRAWN
10
30.00
20
466.00
30
0
11
52.00
21
466.00
31
0
0
LINE
8
FILL
10
52.00
20
466.00
30
0
11
49.40
21
466.85
31
0
0
LINE
8
FILL
10
49.40
20
466.85
30
0
11
49.40
21
465.15
31
0
0
LINE
8
FILL
10
49.40
20
465.15
30
0
11
52.00
21
466.00
31
0
0
LINE
8
AS-DRAWN
10
230.00
20
554.00
30
0
11
380.00
21
554.00
31
0
0
LINE
8
AS-DRAWN
10
380.00
20
554.00
30
0
11
380.00
21
458.00
31
0
0
LINE
8
AS-DRAWN
10
380.00
20
458.00
30
0
11
230.00
21
458.00
31
0
0
LINE
8
AS-DRAWN
10
230.00
20
458.00
30
0
11
230.00
21
554.00
31
0
0
LINE
8
AS-DRAWN
10
236.00
20
466.00
30
0
11
258.00
21
466.00
31
0
0
LINE
8
FILL
10
258.00
20
466.00
30
0
11
255.40
21
466.85
31
0
0
LINE
8
FILL
10
255.40
20
466.85
30
0
11
255.40
21
465.15
31
0
0
LINE
8
FILL
10
255.40
20
465.15
30
0
11
258.00
21
466.00
31
0
0
LINE
8
AS-DRAWN
10
436.00
20
554.00
30
0
11
586.00
21
554.00
31
0
0
LINE
8
AS-DRAWN
10
586.00
20
554.00
30
0
11
586.00
21
458.00
31
0
0
LINE
8
AS-DRAWN
10
586.00
20
458.00
30
0
11
436.00
21
458.00
31
0
0
LINE
8
AS-DRAWN
10
436.00
20
458.00
30
0
11
436.00
21
554.00
31
0
0
LINE
8
AS-DRAWN
10
442.00
20
466.00
30
0
11
464.00
21
466.00
31
0
0
LINE
8
FILL
10
464.00
20
466.00
30
0
11
461.40
21
466.85
31
0
0
LINE
8
FILL
10
461.40
20
466.85
30
0
11
461.40
21
465.15
31
0
0
LINE
8
FILL
10
461.40
20
465.15
30
0
11
464.00
21
466.00
31
0
0
LINE
8
AS-DRAWN
10
24.00
20
426.00
30
0
11
174.00
21
426.00
31
0
0
LINE
8
AS-DRAWN
10
174.00
20
426.00
30
0
11
174.00
21
330.00
31
0
0
LINE
8
AS-DRAWN
10
174.00
20
330.00
30
0
11
24.00
21
330.00
31
0
0
LINE
8
AS-DRAWN
10
24.00
20
330.00
30
0
11
24.00
21
426.00
31
0
0
LINE
8
AS-DRAWN
10
30.00
20
338.00
30
0
11
52.00
21
338.00
31
0
0
LINE
8
FILL
10
52.00
20
338.00
30
0
11
49.40
21
338.85
31
0
0
LINE
8
FILL
10
49.40
20
338.85
30
0
11
49.40
21
337.15
31
0
0
LINE
8
FILL
10
49.40
20
337.15
30
0
11
52.00
21
338.00
31
0
0
LINE
8
AS-DRAWN
10
230.00
20
426.00
30
0
11
380.00
21
426.00
31
0
0
LINE
8
AS-DRAWN
10
380.00
20
426.00
30
0
11
380.00
21
330.00
31
0
0
LINE
8
AS-DRAWN
10
380.00
20
330.00
30
0
11
230.00
21
330.00
31
0
0
LINE
8
AS-DRAWN
10
230.00
20
330.00
30
0
11
230.00
21
426.00
31
0
0
LINE
8
AS-DRAWN
10
236.00
20
338.00
30
0
11
258.00
21
338.00
31
0
0
LINE
8
FILL
10
258.00
20
338.00
30
0
11
255.40
21
338.85
31
0
0
LINE
8
FILL
10
255.40
20
338.85
30
0
11
255.40
21
337.15
31
0
0
LINE
8
FILL
10
255.40
20
337.15
30
0
11
258.00
21
338.00
31
0
0
LINE
8
AS-DRAWN
10
18.00
20
164.00
30
0
11
186.00
21
164.00
31
0
0
LINE
8
AS-DRAWN
10
186.00
20
164.00
30
0
11
186.00
21
136.00
31
0
0
LINE
8
AS-DRAWN
10
186.00
20
136.00
30
0
11
18.00
21
136.00
31
0
0
LINE
8
AS-DRAWN
10
18.00
20
136.00
30
0
11
18.00
21
164.00
31
0
0
LINE
8
AS-DRAWN
10
22.00
20
156.00
30
0
11
28.00
21
156.00
31
0
0
LINE
8
AS-DRAWN
10
28.00
20
156.00
30
0
11
28.00
21
150.00
31
0
0
LINE
8
AS-DRAWN
10
28.00
20
150.00
30
0
11
22.00
21
150.00
31
0
0
LINE
8
AS-DRAWN
10
22.00
20
150.00
30
0
11
22.00
21
156.00
31
0
0
LINE
8
AS-DRAWN
10
194.00
20
164.00
30
0
11
362.00
21
164.00
31
0
0
LINE
8
AS-DRAWN
10
362.00
20
164.00
30
0
11
362.00
21
136.00
31
0
0
LINE
8
AS-DRAWN
10
362.00
20
136.00
30
0
11
194.00
21
136.00
31
0
0
LINE
8
AS-DRAWN
10
194.00
20
136.00
30
0
11
194.00
21
164.00
31
0
0
LINE
8
AS-DRAWN
10
198.00
20
156.00
30
0
11
204.00
21
156.00
31
0
0
LINE
8
AS-DRAWN
10
204.00
20
156.00
30
0
11
204.00
21
150.00
31
0
0
LINE
8
AS-DRAWN
10
204.00
20
150.00
30
0
11
198.00
21
150.00
31
0
0
LINE
8
AS-DRAWN
10
198.00
20
150.00
30
0
11
198.00
21
156.00
31
0
0
LINE
8
AS-DRAWN
10
8.00
20
586.00
30
0
11
833.00
21
586.00
31
0
0
LINE
8
AS-DRAWN
10
833.00
20
586.00
30
0
11
833.00
21
8.00
31
0
0
LINE
8
AS-DRAWN
10
833.00
20
8.00
30
0
11
8.00
21
8.00
31
0
0
LINE
8
AS-DRAWN
10
8.00
20
8.00
30
0
11
8.00
21
586.00
31
0
0
LINE
8
AS-DRAWN
10
10.00
20
88.00
30
0
11
831.00
21
88.00
31
0
0
LINE
8
AS-DRAWN
10
831.00
20
88.00
30
0
11
831.00
21
10.00
31
0
0
LINE
8
AS-DRAWN
10
831.00
20
10.00
30
0
11
10.00
21
10.00
31
0
0
LINE
8
AS-DRAWN
10
10.00
20
10.00
30
0
11
10.00
21
88.00
31
0
0
LINE
8
AS-DRAWN
10
640.00
20
88.00
30
0
11
640.00
21
10.00
31
0
0
LINE
8
AS-DRAWN
10
748.00
20
88.00
30
0
11
748.00
21
10.00
31
0
0
LINE
8
AS-DRAWN
10
762.00
20
72.00
30
0
11
768.50
21
72.00
31
0
0
LINE
8
AS-DRAWN
10
768.50
20
72.00
30
0
11
768.50
21
65.50
31
0
0
LINE
8
AS-DRAWN
10
768.50
20
65.50
30
0
11
762.00
21
65.50
31
0
0
LINE
8
AS-DRAWN
10
762.00
20
65.50
30
0
11
762.00
21
72.00
31
0
0
TEXT
8
ANNOTATION
10
18.00
20
572.00
30
0
40
2.55
1
ENVELOPE ~ 1223 x 1911. FLATS ARE NOT DEVELOPED. BEND ALLOWANCE TBD. NO THICKNESS.
72
0
0
TEXT
8
ANNOTATION
10
30.00
20
540.00
30
0
40
2.40
1
P4-A LOFT FLOOR
72
0
0
TEXT
8
ANNOTATION
10
30.00
20
526.00
30
0
40
2.20
1
~1223 x 1911 EST.
72
0
0
TEXT
8
ANNOTATION
10
30.00
20
512.00
30
0
40
2.20
1
ESTIMATE
72
0
0
TEXT
8
ANNOTATION
10
30.00
20
469.40
30
0
40
2.15
1
GRAIN / FACE
72
0
0
TEXT
8
ANNOTATION
10
236.00
20
540.00
30
0
40
2.40
1
P4-B LOFT CEILING
72
0
0
TEXT
8
ANNOTATION
10
236.00
20
526.00
30
0
40
2.20
1
~1223 x 1911 EST.
72
0
0
TEXT
8
ANNOTATION
10
236.00
20
512.00
30
0
40
2.20
1
ESTIMATE
72
0
0
TEXT
8
ANNOTATION
10
236.00
20
469.40
30
0
40
2.15
1
GRAIN / FACE
72
0
0
TEXT
8
ANNOTATION
10
442.00
20
540.00
30
0
40
2.40
1
P4-C FRONT FACE
72
0
0
TEXT
8
ANNOTATION
10
442.00
20
526.00
30
0
40
2.20
1
1911 x ~1830 EST.
72
0
0
TEXT
8
ANNOTATION
10
442.00
20
512.00
30
0
40
2.20
1
ESTIMATE
72
0
0
TEXT
8
ANNOTATION
10
442.00
20
469.40
30
0
40
2.15
1
GRAIN / FACE
72
0
0
TEXT
8
ANNOTATION
10
30.00
20
412.00
30
0
40
2.40
1
P4-D LOFT SIDE LH
72
0
0
TEXT
8
ANNOTATION
10
30.00
20
398.00
30
0
40
2.20
1
~1223 x ~1830 EST.
72
0
0
TEXT
8
ANNOTATION
10
30.00
20
384.00
30
0
40
2.20
1
ESTIMATE
72
0
0
TEXT
8
ANNOTATION
10
30.00
20
341.40
30
0
40
2.15
1
GRAIN / FACE
72
0
0
TEXT
8
ANNOTATION
10
236.00
20
412.00
30
0
40
2.40
1
P4-E LOFT SIDE RH
72
0
0
TEXT
8
ANNOTATION
10
236.00
20
398.00
30
0
40
2.20
1
~1223 x ~1830 EST.
72
0
0
TEXT
8
ANNOTATION
10
236.00
20
384.00
30
0
40
2.20
1
ESTIMATE
72
0
0
TEXT
8
ANNOTATION
10
236.00
20
341.40
30
0
40
2.15
1
GRAIN / FACE
72
0
0
TEXT
8
ANNOTATION
10
420.00
20
404.00
30
0
40
2.50
1
PLOT IS NOT TO SCALE.
72
0
0
TEXT
8
ANNOTATION
10
420.00
20
386.00
30
0
40
2.40
1
CUT THE TEXT FIGURES.
72
0
0
TEXT
8
ANNOTATION
10
420.00
20
368.00
30
0
40
2.40
1
AS-FOUND GOVERNS H
72
0
0
TEXT
8
ANNOTATION
10
420.00
20
350.00
30
0
40
2.40
1
AND THE 1223 LENGTH.
72
0
0
TEXT
8
ANNOTATION
10
18.00
20
294.00
30
0
40
2.55
1
FRONT-FACE OPENING IS OPTIONAL AND HAS NO CUT SIZE. DO NOT ADD ONE.
72
0
0
TEXT
8
ANNOTATION
10
18.00
20
276.00
30
0
40
2.55
1
OVER-CAB WINDOW IS P8. SIZE TBD. FIELD LOCATE. NOT DRAWN AS A CUT.
72
0
0
TEXT
8
ANNOTATION
10
18.00
20
258.00
30
0
40
2.55
1
CAB ROOF IS NOT A BEAM. THE RING CARRIES THE LOFT. SEE F-02 AND J-01.
72
0
0
TEXT
8
ANNOTATION
10
18.00
20
232.00
30
0
40
2.55
1
P4-A AND P4-B EACH FIT ONE 1525x3050 IF THE ESTIMATE HOLDS. OFFCUT IS NOT A PART.
72
0
0
TEXT
8
ANNOTATION
10
18.00
20
214.00
30
0
40
2.55
1
P4-C AND THE SIDES EXCEED 1525 ON THE TALL EDGE. SPLICE TBD.
72
0
0
TEXT
8
ANNOTATION
10
32.00
20
151.00
30
0
40
2.30
1
JAY GO UNSIGNED
72
0
0
TEXT
8
ANNOTATION
10
32.00
20
141.00
30
0
40
2.15
1
RAIL DRILL = NO-GO
72
0
0
TEXT
8
ANNOTATION
10
208.00
20
151.00
30
0
40
2.30
1
ENG GO UNSIGNED
72
0
0
TEXT
8
ANNOTATION
10
208.00
20
141.00
30
0
40
2.15
1
TUBE / WELD = TBD
72
0
0
TEXT
8
ANNOTATION
10
18.00
20
72.00
30
0
40
3.70
1
KE-Texh / TAMARAW . PHASE-1 SHELL
72
0
0
TEXT
8
ANNOTATION
10
18.00
20
59.00
30
0
40
3.15
1
C-04 P4 OVER-CAB LOFT - ENVELOPE FLATS
72
0
0
TEXT
8
ANNOTATION
10
18.00
20
44.00
30
0
40
3.35
1
PRELIMINARY - VERIFY ON VEHICLE - NOT LTO-CERTIFIED
72
0
0
TEXT
8
ANNOTATION
10
18.00
20
30.00
30
0
40
2.45
1
GATES: AS-FOUND TAPE . JAY GO RAIL DRILL . ENG TUBE/WELD . OUTRIGGERS+LEGS+WEIGH . HOSE . HATCH . GEN/AC PROVISION . D-01...D-08
72
0
0
TEXT
8
ANNOTATION
10
18.00
20
18.00
30
0
40
2.40
1
REV CONDITIONAL . GATES UNSIGNED = DO NOT CUT . mm . 2026-09-23 . SHEET 6 OF 25
72
0
0
TEXT
8
ANNOTATION
10
648.00
20
70.00
30
0
40
2.40
1
SHEET
72
0
0
TEXT
8
ANNOTATION
10
648.00
20
54.00
30
0
40
5.00
1
C-04
72
0
0
TEXT
8
ANNOTATION
10
648.00
20
38.00
30
0
40
3.20
1
DO NOT SCALE
72
0
0
TEXT
8
ANNOTATION
10
648.00
20
22.00
30
0
40
2.30
1
VIEWS NAMED ON SHEET
72
0
0
TEXT
8
ANNOTATION
10
772.00
20
66.00
30
0
40
2.70
1
JAY GO
72
0
0
TEXT
8
ANNOTATION
10
756.00
20
50.00
30
0
40
2.50
1
RAIL DRILL
72
0
0
TEXT
8
ANNOTATION
10
756.00
20
36.00
30
0
40
2.40
1
UNSIGNED
72
0
0
TEXT
8
ANNOTATION
10
756.00
20
24.00
30
0
40
2.40
1
= NO-GO
72
0
0
ENDSEC
0
EOF
