999
CONDITIONAL INVENTORY - NOT CUT-READY - AS-DRAWN SHEET mm - NOT PART SCALE
0
SECTION
2
HEADER
9
$INSUNITS
70
4
0
ENDSEC
0
SECTION
2
ENTITIES
0
TEXT
8
STAMP
10
12.00
20
602.00
30
0
40
3.50
1
CONDITIONAL INVENTORY - NOT CUT-READY
72
0
0
TEXT
8
STAMP
10
12.00
20
608.00
30
0
40
3.50
1
AS-DRAWN A1 SHEET mm. NOT PART SCALE. UNDEVELOPED / NTS WHERE THE SVG SAYS SO.
72
0
0
TEXT
8
STAMP
10
12.00
20
614.00
30
0
40
3.50
1
DO NOT PLASMA. PRELIMINARY - VERIFY ON VEHICLE - NOT LTO-CERTIFIED.
72
0
0
LINE
8
FILL
10
16.00
20
562.00
30
0
11
532.00
21
562.00
31
0
0
LINE
8
FILL
10
532.00
20
562.00
30
0
11
532.00
21
547.40
31
0
0
LINE
8
FILL
10
532.00
20
547.40
30
0
11
16.00
21
547.40
31
0
0
LINE
8
FILL
10
16.00
20
547.40
30
0
11
16.00
21
562.00
31
0
0
LINE
8
AS-DRAWN
10
16.00
20
562.00
30
0
11
532.00
21
562.00
31
0
0
LINE
8
AS-DRAWN
10
532.00
20
562.00
30
0
11
532.00
21
226.20
31
0
0
LINE
8
AS-DRAWN
10
532.00
20
226.20
30
0
11
16.00
21
226.20
31
0
0
LINE
8
AS-DRAWN
10
16.00
20
226.20
30
0
11
16.00
21
562.00
31
0
0
LINE
8
AS-DRAWN
10
64.00
20
562.00
30
0
11
64.00
21
226.20
31
0
0
LINE
8
AS-DRAWN
10
182.00
20
562.00
30
0
11
182.00
21
226.20
31
0
0
LINE
8
AS-DRAWN
10
254.00
20
562.00
30
0
11
254.00
21
226.20
31
0
0
LINE
8
AS-DRAWN
10
290.00
20
562.00
30
0
11
290.00
21
226.20
31
0
0
LINE
8
AS-DRAWN
10
330.00
20
562.00
30
0
11
330.00
21
226.20
31
0
0
LINE
8
AS-DRAWN
10
382.00
20
562.00
30
0
11
382.00
21
226.20
31
0
0
LINE
8
AS-DRAWN
10
16.00
20
547.40
30
0
11
532.00
21
547.40
31
0
0
LINE
8
AS-DRAWN
10
16.00
20
532.80
30
0
11
532.00
21
532.80
31
0
0
LINE
8
AS-DRAWN
10
16.00
20
518.20
30
0
11
532.00
21
518.20
31
0
0
LINE
8
AS-DRAWN
10
16.00
20
503.60
30
0
11
532.00
21
503.60
31
0
0
LINE
8
AS-DRAWN
10
16.00
20
489.00
30
0
11
532.00
21
489.00
31
0
0
LINE
8
AS-DRAWN
10
16.00
20
474.40
30
0
11
532.00
21
474.40
31
0
0
LINE
8
AS-DRAWN
10
16.00
20
459.80
30
0
11
532.00
21
459.80
31
0
0
LINE
8
AS-DRAWN
10
16.00
20
445.20
30
0
11
532.00
21
445.20
31
0
0
LINE
8
AS-DRAWN
10
16.00
20
430.60
30
0
11
532.00
21
430.60
31
0
0
LINE
8
AS-DRAWN
10
16.00
20
416.00
30
0
11
532.00
21
416.00
31
0
0
LINE
8
AS-DRAWN
10
16.00
20
401.40
30
0
11
532.00
21
401.40
31
0
0
LINE
8
AS-DRAWN
10
16.00
20
386.80
30
0
11
532.00
21
386.80
31
0
0
LINE
8
AS-DRAWN
10
16.00
20
372.20
30
0
11
532.00
21
372.20
31
0
0
LINE
8
AS-DRAWN
10
16.00
20
357.60
30
0
11
532.00
21
357.60
31
0
0
LINE
8
AS-DRAWN
10
16.00
20
343.00
30
0
11
532.00
21
343.00
31
0
0
LINE
8
AS-DRAWN
10
16.00
20
328.40
30
0
11
532.00
21
328.40
31
0
0
LINE
8
AS-DRAWN
10
16.00
20
313.80
30
0
11
532.00
21
313.80
31
0
0
LINE
8
AS-DRAWN
10
16.00
20
299.20
30
0
11
532.00
21
299.20
31
0
0
LINE
8
AS-DRAWN
10
16.00
20
284.60
30
0
11
532.00
21
284.60
31
0
0
LINE
8
AS-DRAWN
10
16.00
20
270.00
30
0
11
532.00
21
270.00
31
0
0
LINE
8
AS-DRAWN
10
16.00
20
255.40
30
0
11
532.00
21
255.40
31
0
0
LINE
8
AS-DRAWN
10
16.00
20
240.80
30
0
11
532.00
21
240.80
31
0
0
LINE
8
AS-DRAWN
10
400.00
20
146.00
30
0
11
568.00
21
146.00
31
0
0
LINE
8
AS-DRAWN
10
568.00
20
146.00
30
0
11
568.00
21
118.00
31
0
0
LINE
8
AS-DRAWN
10
568.00
20
118.00
30
0
11
400.00
21
118.00
31
0
0
LINE
8
AS-DRAWN
10
400.00
20
118.00
30
0
11
400.00
21
146.00
31
0
0
LINE
8
AS-DRAWN
10
404.00
20
138.00
30
0
11
410.00
21
138.00
31
0
0
LINE
8
AS-DRAWN
10
410.00
20
138.00
30
0
11
410.00
21
132.00
31
0
0
LINE
8
AS-DRAWN
10
410.00
20
132.00
30
0
11
404.00
21
132.00
31
0
0
LINE
8
AS-DRAWN
10
404.00
20
132.00
30
0
11
404.00
21
138.00
31
0
0
LINE
8
AS-DRAWN
10
576.00
20
146.00
30
0
11
744.00
21
146.00
31
0
0
LINE
8
AS-DRAWN
10
744.00
20
146.00
30
0
11
744.00
21
118.00
31
0
0
LINE
8
AS-DRAWN
10
744.00
20
118.00
30
0
11
576.00
21
118.00
31
0
0
LINE
8
AS-DRAWN
10
576.00
20
118.00
30
0
11
576.00
21
146.00
31
0
0
LINE
8
AS-DRAWN
10
580.00
20
138.00
30
0
11
586.00
21
138.00
31
0
0
LINE
8
AS-DRAWN
10
586.00
20
138.00
30
0
11
586.00
21
132.00
31
0
0
LINE
8
AS-DRAWN
10
586.00
20
132.00
30
0
11
580.00
21
132.00
31
0
0
LINE
8
AS-DRAWN
10
580.00
20
132.00
30
0
11
580.00
21
138.00
31
0
0
LINE
8
AS-DRAWN
10
8.00
20
586.00
30
0
11
833.00
21
586.00
31
0
0
LINE
8
AS-DRAWN
10
833.00
20
586.00
30
0
11
833.00
21
8.00
31
0
0
LINE
8
AS-DRAWN
10
833.00
20
8.00
30
0
11
8.00
21
8.00
31
0
0
LINE
8
AS-DRAWN
10
8.00
20
8.00
30
0
11
8.00
21
586.00
31
0
0
LINE
8
AS-DRAWN
10
10.00
20
88.00
30
0
11
831.00
21
88.00
31
0
0
LINE
8
AS-DRAWN
10
831.00
20
88.00
30
0
11
831.00
21
10.00
31
0
0
LINE
8
AS-DRAWN
10
831.00
20
10.00
30
0
11
10.00
21
10.00
31
0
0
LINE
8
AS-DRAWN
10
10.00
20
10.00
30
0
11
10.00
21
88.00
31
0
0
LINE
8
AS-DRAWN
10
640.00
20
88.00
30
0
11
640.00
21
10.00
31
0
0
LINE
8
AS-DRAWN
10
748.00
20
88.00
30
0
11
748.00
21
10.00
31
0
0
LINE
8
AS-DRAWN
10
762.00
20
72.00
30
0
11
768.50
21
72.00
31
0
0
LINE
8
AS-DRAWN
10
768.50
20
72.00
30
0
11
768.50
21
65.50
31
0
0
LINE
8
AS-DRAWN
10
768.50
20
65.50
30
0
11
762.00
21
65.50
31
0
0
LINE
8
AS-DRAWN
10
762.00
20
65.50
30
0
11
762.00
21
72.00
31
0
0
TEXT
8
ANNOTATION
10
18.00
20
572.00
30
0
40
2.50
1
TUBE SECTION TBD. MITER TBD. HOLES TBD. CUT LENGTH FOLLOWS THE NOTE, NOT A GUESS.
72
0
0
TEXT
8
ANNOTATION
10
17.40
20
553.97
30
0
40
2.15
1
MK
72
0
0
TEXT
8
ANNOTATION
10
65.40
20
553.97
30
0
40
2.15
1
MEMBER
72
0
0
TEXT
8
ANNOTATION
10
183.40
20
553.97
30
0
40
2.15
1
LENGTH
72
0
0
TEXT
8
ANNOTATION
10
255.40
20
553.97
30
0
40
2.15
1
QTY
72
0
0
TEXT
8
ANNOTATION
10
291.40
20
553.97
30
0
40
2.15
1
END
72
0
0
TEXT
8
ANNOTATION
10
331.40
20
553.97
30
0
40
2.15
1
HOLES
72
0
0
TEXT
8
ANNOTATION
10
383.40
20
553.97
30
0
40
2.15
1
NOTE
72
0
0
TEXT
8
ANNOTATION
10
17.40
20
539.37
30
0
40
2.15
1
FR-01
72
0
0
TEXT
8
ANNOTATION
10
65.40
20
539.37
30
0
40
2.15
1
Floor long LH
72
0
0
TEXT
8
ANNOTATION
10
183.40
20
539.37
30
0
40
2.15
1
3647
72
0
0
TEXT
8
ANNOTATION
10
255.40
20
539.37
30
0
40
2.15
1
1
72
0
0
TEXT
8
ANNOTATION
10
291.40
20
539.37
30
0
40
2.15
1
TBD
72
0
0
TEXT
8
ANNOTATION
10
331.40
20
539.37
30
0
40
2.15
1
TBD
72
0
0
TEXT
8
ANNOTATION
10
383.40
20
539.37
30
0
40
2.15
1
Rail + tail. Not skin.
72
0
0
TEXT
8
ANNOTATION
10
17.40
20
524.77
30
0
40
2.15
1
FR-02
72
0
0
TEXT
8
ANNOTATION
10
65.40
20
524.77
30
0
40
2.15
1
Floor long RH
72
0
0
TEXT
8
ANNOTATION
10
183.40
20
524.77
30
0
40
2.15
1
3647
72
0
0
TEXT
8
ANNOTATION
10
255.40
20
524.77
30
0
40
2.15
1
1
72
0
0
TEXT
8
ANNOTATION
10
291.40
20
524.77
30
0
40
2.15
1
TBD
72
0
0
TEXT
8
ANNOTATION
10
331.40
20
524.77
30
0
40
2.15
1
TBD
72
0
0
TEXT
8
ANNOTATION
10
383.40
20
524.77
30
0
40
2.15
1
Mirror of FR-01.
72
0
0
TEXT
8
ANNOTATION
10
17.40
20
510.17
30
0
40
2.15
1
FR-03
72
0
0
TEXT
8
ANNOTATION
10
65.40
20
510.17
30
0
40
2.15
1
Floor cross front
72
0
0
TEXT
8
ANNOTATION
10
183.40
20
510.17
30
0
40
2.15
1
1911 env.
72
0
0
TEXT
8
ANNOTATION
10
255.40
20
510.17
30
0
40
2.15
1
1
72
0
0
TEXT
8
ANNOTATION
10
291.40
20
510.17
30
0
40
2.15
1
TBD
72
0
0
TEXT
8
ANNOTATION
10
331.40
20
510.17
30
0
40
2.15
1
TBD
72
0
0
TEXT
8
ANNOTATION
10
383.40
20
510.17
30
0
40
2.15
1
Minus joint TBD.
72
0
0
TEXT
8
ANNOTATION
10
17.40
20
495.57
30
0
40
2.15
1
FR-04
72
0
0
TEXT
8
ANNOTATION
10
65.40
20
495.57
30
0
40
2.15
1
Floor cross rear
72
0
0
TEXT
8
ANNOTATION
10
183.40
20
495.57
30
0
40
2.15
1
1911 env.
72
0
0
TEXT
8
ANNOTATION
10
255.40
20
495.57
30
0
40
2.15
1
1
72
0
0
TEXT
8
ANNOTATION
10
291.40
20
495.57
30
0
40
2.15
1
TBD
72
0
0
TEXT
8
ANNOTATION
10
331.40
20
495.57
30
0
40
2.15
1
TBD
72
0
0
TEXT
8
ANNOTATION
10
383.40
20
495.57
30
0
40
2.15
1
Tail end. Joint TBD.
72
0
0
TEXT
8
ANNOTATION
10
17.40
20
480.97
30
0
40
2.15
1
FR-05
72
0
0
TEXT
8
ANNOTATION
10
65.40
20
480.97
30
0
40
2.15
1
Bed-tail fishplate
72
0
0
TEXT
8
ANNOTATION
10
183.40
20
480.97
30
0
40
2.15
1
TBD
72
0
0
TEXT
8
ANNOTATION
10
255.40
20
480.97
30
0
40
2.15
1
2
72
0
0
TEXT
8
ANNOTATION
10
291.40
20
480.97
30
0
40
2.15
1
-
72
0
0
TEXT
8
ANNOTATION
10
331.40
20
480.97
30
0
40
2.15
1
TBD
72
0
0
TEXT
8
ANNOTATION
10
383.40
20
480.97
30
0
40
2.15
1
J-01. Size unreleased.
72
0
0
TEXT
8
ANNOTATION
10
17.40
20
466.37
30
0
40
2.15
1
FR-06
72
0
0
TEXT
8
ANNOTATION
10
65.40
20
466.37
30
0
40
2.15
1
Outrigger
72
0
0
TEXT
8
ANNOTATION
10
183.40
20
466.37
30
0
40
2.15
1
TBD
72
0
0
TEXT
8
ANNOTATION
10
255.40
20
466.37
30
0
40
2.15
1
TBD
72
0
0
TEXT
8
ANNOTATION
10
291.40
20
466.37
30
0
40
2.15
1
TBD
72
0
0
TEXT
8
ANNOTATION
10
331.40
20
466.37
30
0
40
2.15
1
Jay GO
72
0
0
TEXT
8
ANNOTATION
10
383.40
20
466.37
30
0
40
2.15
1
Pitch = as-found.
72
0
0
TEXT
8
ANNOTATION
10
17.40
20
451.77
30
0
40
2.15
1
FR-07
72
0
0
TEXT
8
ANNOTATION
10
65.40
20
451.77
30
0
40
2.15
1
Corner post
72
0
0
TEXT
8
ANNOTATION
10
183.40
20
451.77
30
0
40
2.15
1
~1830 est.
72
0
0
TEXT
8
ANNOTATION
10
255.40
20
451.77
30
0
40
2.15
1
4
72
0
0
TEXT
8
ANNOTATION
10
291.40
20
451.77
30
0
40
2.15
1
TBD
72
0
0
TEXT
8
ANNOTATION
10
331.40
20
451.77
30
0
40
2.15
1
TBD
72
0
0
TEXT
8
ANNOTATION
10
383.40
20
451.77
30
0
40
2.15
1
Cut = as-found H.
72
0
0
TEXT
8
ANNOTATION
10
17.40
20
437.17
30
0
40
2.15
1
FR-08
72
0
0
TEXT
8
ANNOTATION
10
65.40
20
437.17
30
0
40
2.15
1
Mid post
72
0
0
TEXT
8
ANNOTATION
10
183.40
20
437.17
30
0
40
2.15
1
~1830 est.
72
0
0
TEXT
8
ANNOTATION
10
255.40
20
437.17
30
0
40
2.15
1
TBD
72
0
0
TEXT
8
ANNOTATION
10
291.40
20
437.17
30
0
40
2.15
1
TBD
72
0
0
TEXT
8
ANNOTATION
10
331.40
20
437.17
30
0
40
2.15
1
TBD
72
0
0
TEXT
8
ANNOTATION
10
383.40
20
437.17
30
0
40
2.15
1
Count = Eng.
72
0
0
TEXT
8
ANNOTATION
10
17.40
20
422.57
30
0
40
2.15
1
FR-09
72
0
0
TEXT
8
ANNOTATION
10
65.40
20
422.57
30
0
40
2.15
1
Sill LH
72
0
0
TEXT
8
ANNOTATION
10
183.40
20
422.57
30
0
40
2.15
1
3647
72
0
0
TEXT
8
ANNOTATION
10
255.40
20
422.57
30
0
40
2.15
1
1
72
0
0
TEXT
8
ANNOTATION
10
291.40
20
422.57
30
0
40
2.15
1
TBD
72
0
0
TEXT
8
ANNOTATION
10
331.40
20
422.57
30
0
40
2.15
1
TBD
72
0
0
TEXT
8
ANNOTATION
10
383.40
20
422.57
30
0
40
2.15
1
Entry is field locate.
72
0
0
TEXT
8
ANNOTATION
10
17.40
20
407.97
30
0
40
2.15
1
FR-10
72
0
0
TEXT
8
ANNOTATION
10
65.40
20
407.97
30
0
40
2.15
1
Sill RH
72
0
0
TEXT
8
ANNOTATION
10
183.40
20
407.97
30
0
40
2.15
1
3647
72
0
0
TEXT
8
ANNOTATION
10
255.40
20
407.97
30
0
40
2.15
1
1
72
0
0
TEXT
8
ANNOTATION
10
291.40
20
407.97
30
0
40
2.15
1
TBD
72
0
0
TEXT
8
ANNOTATION
10
331.40
20
407.97
30
0
40
2.15
1
TBD
72
0
0
TEXT
8
ANNOTATION
10
383.40
20
407.97
30
0
40
2.15
1
No entry by default.
72
0
0
TEXT
8
ANNOTATION
10
17.40
20
393.37
30
0
40
2.15
1
FR-11
72
0
0
TEXT
8
ANNOTATION
10
65.40
20
393.37
30
0
40
2.15
1
Roof long LH
72
0
0
TEXT
8
ANNOTATION
10
183.40
20
393.37
30
0
40
2.15
1
4870
72
0
0
TEXT
8
ANNOTATION
10
255.40
20
393.37
30
0
40
2.15
1
1
72
0
0
TEXT
8
ANNOTATION
10
291.40
20
393.37
30
0
40
2.15
1
TBD
72
0
0
TEXT
8
ANNOTATION
10
331.40
20
393.37
30
0
40
2.15
1
TBD
72
0
0
TEXT
8
ANNOTATION
10
383.40
20
393.37
30
0
40
2.15
1
1223+3647. Splice TBD.
72
0
0
TEXT
8
ANNOTATION
10
17.40
20
378.77
30
0
40
2.15
1
FR-12
72
0
0
TEXT
8
ANNOTATION
10
65.40
20
378.77
30
0
40
2.15
1
Roof long RH
72
0
0
TEXT
8
ANNOTATION
10
183.40
20
378.77
30
0
40
2.15
1
4870
72
0
0
TEXT
8
ANNOTATION
10
255.40
20
378.77
30
0
40
2.15
1
1
72
0
0
TEXT
8
ANNOTATION
10
291.40
20
378.77
30
0
40
2.15
1
TBD
72
0
0
TEXT
8
ANNOTATION
10
331.40
20
378.77
30
0
40
2.15
1
TBD
72
0
0
TEXT
8
ANNOTATION
10
383.40
20
378.77
30
0
40
2.15
1
Mirror. Splice TBD.
72
0
0
TEXT
8
ANNOTATION
10
17.40
20
364.17
30
0
40
2.15
1
FR-13
72
0
0
TEXT
8
ANNOTATION
10
65.40
20
364.17
30
0
40
2.15
1
Roof cross nose
72
0
0
TEXT
8
ANNOTATION
10
183.40
20
364.17
30
0
40
2.15
1
1911 env.
72
0
0
TEXT
8
ANNOTATION
10
255.40
20
364.17
30
0
40
2.15
1
1
72
0
0
TEXT
8
ANNOTATION
10
291.40
20
364.17
30
0
40
2.15
1
TBD
72
0
0
TEXT
8
ANNOTATION
10
331.40
20
364.17
30
0
40
2.15
1
TBD
72
0
0
TEXT
8
ANNOTATION
10
383.40
20
364.17
30
0
40
2.15
1
Minus joint TBD.
72
0
0
TEXT
8
ANNOTATION
10
17.40
20
349.57
30
0
40
2.15
1
FR-14
72
0
0
TEXT
8
ANNOTATION
10
65.40
20
349.57
30
0
40
2.15
1
Roof cross rear
72
0
0
TEXT
8
ANNOTATION
10
183.40
20
349.57
30
0
40
2.15
1
1911 env.
72
0
0
TEXT
8
ANNOTATION
10
255.40
20
349.57
30
0
40
2.15
1
1
72
0
0
TEXT
8
ANNOTATION
10
291.40
20
349.57
30
0
40
2.15
1
TBD
72
0
0
TEXT
8
ANNOTATION
10
331.40
20
349.57
30
0
40
2.15
1
TBD
72
0
0
TEXT
8
ANNOTATION
10
383.40
20
349.57
30
0
40
2.15
1
Minus joint TBD.
72
0
0
TEXT
8
ANNOTATION
10
17.40
20
334.97
30
0
40
2.15
1
FR-15
72
0
0
TEXT
8
ANNOTATION
10
65.40
20
334.97
30
0
40
2.15
1
Over-cab long
72
0
0
TEXT
8
ANNOTATION
10
183.40
20
334.97
30
0
40
2.15
1
~1223 est.
72
0
0
TEXT
8
ANNOTATION
10
255.40
20
334.97
30
0
40
2.15
1
2
72
0
0
TEXT
8
ANNOTATION
10
291.40
20
334.97
30
0
40
2.15
1
TBD
72
0
0
TEXT
8
ANNOTATION
10
331.40
20
334.97
30
0
40
2.15
1
TBD
72
0
0
TEXT
8
ANNOTATION
10
383.40
20
334.97
30
0
40
2.15
1
Estimate. Confirm.
72
0
0
TEXT
8
ANNOTATION
10
17.40
20
320.37
30
0
40
2.15
1
FR-16
72
0
0
TEXT
8
ANNOTATION
10
65.40
20
320.37
30
0
40
2.15
1
Over-cab cross
72
0
0
TEXT
8
ANNOTATION
10
183.40
20
320.37
30
0
40
2.15
1
1911 env.
72
0
0
TEXT
8
ANNOTATION
10
255.40
20
320.37
30
0
40
2.15
1
1
72
0
0
TEXT
8
ANNOTATION
10
291.40
20
320.37
30
0
40
2.15
1
TBD
72
0
0
TEXT
8
ANNOTATION
10
331.40
20
320.37
30
0
40
2.15
1
TBD
72
0
0
TEXT
8
ANNOTATION
10
383.40
20
320.37
30
0
40
2.15
1
At the cab face.
72
0
0
TEXT
8
ANNOTATION
10
17.40
20
305.77
30
0
40
2.15
1
FR-17
72
0
0
TEXT
8
ANNOTATION
10
65.40
20
305.77
30
0
40
2.15
1
Hatch frame long
72
0
0
TEXT
8
ANNOTATION
10
183.40
20
305.77
30
0
40
2.15
1
TBD
72
0
0
TEXT
8
ANNOTATION
10
255.40
20
305.77
30
0
40
2.15
1
2
72
0
0
TEXT
8
ANNOTATION
10
291.40
20
305.77
30
0
40
2.15
1
TBD
72
0
0
TEXT
8
ANNOTATION
10
331.40
20
305.77
30
0
40
2.15
1
TBD
72
0
0
TEXT
8
ANNOTATION
10
383.40
20
305.77
30
0
40
2.15
1
Opening intent only.
72
0
0
TEXT
8
ANNOTATION
10
17.40
20
291.17
30
0
40
2.15
1
FR-18
72
0
0
TEXT
8
ANNOTATION
10
65.40
20
291.17
30
0
40
2.15
1
Hatch frame cross
72
0
0
TEXT
8
ANNOTATION
10
183.40
20
291.17
30
0
40
2.15
1
TBD
72
0
0
TEXT
8
ANNOTATION
10
255.40
20
291.17
30
0
40
2.15
1
2
72
0
0
TEXT
8
ANNOTATION
10
291.40
20
291.17
30
0
40
2.15
1
TBD
72
0
0
TEXT
8
ANNOTATION
10
331.40
20
291.17
30
0
40
2.15
1
TBD
72
0
0
TEXT
8
ANNOTATION
10
383.40
20
291.17
30
0
40
2.15
1
Closed ring. D-04.
72
0
0
TEXT
8
ANNOTATION
10
17.40
20
276.57
30
0
40
2.15
1
FR-19
72
0
0
TEXT
8
ANNOTATION
10
65.40
20
276.57
30
0
40
2.15
1
Door stile
72
0
0
TEXT
8
ANNOTATION
10
183.40
20
276.57
30
0
40
2.15
1
1550+TBD
72
0
0
TEXT
8
ANNOTATION
10
255.40
20
276.57
30
0
40
2.15
1
2
72
0
0
TEXT
8
ANNOTATION
10
291.40
20
276.57
30
0
40
2.15
1
TBD
72
0
0
TEXT
8
ANNOTATION
10
331.40
20
276.57
30
0
40
2.15
1
TBD
72
0
0
TEXT
8
ANNOTATION
10
383.40
20
276.57
30
0
40
2.15
1
Plus buildup. DR-02.
72
0
0
TEXT
8
ANNOTATION
10
17.40
20
261.97
30
0
40
2.15
1
FR-20
72
0
0
TEXT
8
ANNOTATION
10
65.40
20
261.97
30
0
40
2.15
1
Door head
72
0
0
TEXT
8
ANNOTATION
10
183.40
20
261.97
30
0
40
2.15
1
700+TBD
72
0
0
TEXT
8
ANNOTATION
10
255.40
20
261.97
30
0
40
2.15
1
1
72
0
0
TEXT
8
ANNOTATION
10
291.40
20
261.97
30
0
40
2.15
1
TBD
72
0
0
TEXT
8
ANNOTATION
10
331.40
20
261.97
30
0
40
2.15
1
TBD
72
0
0
TEXT
8
ANNOTATION
10
383.40
20
261.97
30
0
40
2.15
1
Field locate on P2.
72
0
0
TEXT
8
ANNOTATION
10
17.40
20
247.37
30
0
40
2.15
1
FR-21
72
0
0
TEXT
8
ANNOTATION
10
65.40
20
247.37
30
0
40
2.15
1
Door threshold
72
0
0
TEXT
8
ANNOTATION
10
183.40
20
247.37
30
0
40
2.15
1
700+TBD
72
0
0
TEXT
8
ANNOTATION
10
255.40
20
247.37
30
0
40
2.15
1
1
72
0
0
TEXT
8
ANNOTATION
10
291.40
20
247.37
30
0
40
2.15
1
TBD
72
0
0
TEXT
8
ANNOTATION
10
331.40
20
247.37
30
0
40
2.15
1
TBD
72
0
0
TEXT
8
ANNOTATION
10
383.40
20
247.37
30
0
40
2.15
1
Weep outward.
72
0
0
TEXT
8
ANNOTATION
10
17.40
20
232.77
30
0
40
2.15
1
FR-22
72
0
0
TEXT
8
ANNOTATION
10
65.40
20
232.77
30
0
40
2.15
1
Rear hatch frame
72
0
0
TEXT
8
ANNOTATION
10
183.40
20
232.77
30
0
40
2.15
1
TBD
72
0
0
TEXT
8
ANNOTATION
10
255.40
20
232.77
30
0
40
2.15
1
4
72
0
0
TEXT
8
ANNOTATION
10
291.40
20
232.77
30
0
40
2.15
1
TBD
72
0
0
TEXT
8
ANNOTATION
10
331.40
20
232.77
30
0
40
2.15
1
TBD
72
0
0
TEXT
8
ANNOTATION
10
383.40
20
232.77
30
0
40
2.15
1
H-02 size unreleased.
72
0
0
TEXT
8
ANNOTATION
10
18.00
20
194.00
30
0
40
2.50
1
NO GENERATOR AND NO AC UNIT ON THIS LIST. PROVISIONS ARE D-07 AND D-08.
72
0
0
TEXT
8
ANNOTATION
10
18.00
20
176.00
30
0
40
2.50
1
1911 ENV. MEANS THE SHELL WIDTH. DEDUCT THE JOINT. DO NOT CUT 1911 BLIND.
72
0
0
TEXT
8
ANNOTATION
10
18.00
20
158.00
30
0
40
2.50
1
~1830 AND ~1223 ARE ESTIMATES. AS-FOUND TAPE GOVERNS BEFORE THE SAW.
72
0
0
TEXT
8
ANNOTATION
10
414.00
20
133.00
30
0
40
2.30
1
JAY GO UNSIGNED
72
0
0
TEXT
8
ANNOTATION
10
414.00
20
123.00
30
0
40
2.15
1
RAIL DRILL = NO-GO
72
0
0
TEXT
8
ANNOTATION
10
590.00
20
133.00
30
0
40
2.30
1
ENG GO UNSIGNED
72
0
0
TEXT
8
ANNOTATION
10
590.00
20
123.00
30
0
40
2.15
1
TUBE / WELD = TBD
72
0
0
TEXT
8
ANNOTATION
10
18.00
20
72.00
30
0
40
3.70
1
KE-Texh / TAMARAW . PHASE-1 SHELL
72
0
0
TEXT
8
ANNOTATION
10
18.00
20
59.00
30
0
40
3.15
1
C-FR FRAME CUT LIST - LENGTHS FROM THE SoR
72
0
0
TEXT
8
ANNOTATION
10
18.00
20
44.00
30
0
40
3.35
1
PRELIMINARY - VERIFY ON VEHICLE - NOT LTO-CERTIFIED
72
0
0
TEXT
8
ANNOTATION
10
18.00
20
30.00
30
0
40
2.45
1
GATES: AS-FOUND TAPE . JAY GO RAIL DRILL . ENG TUBE/WELD . OUTRIGGERS+LEGS+WEIGH . HOSE . HATCH . GEN/AC PROVISION . D-01...D-08
72
0
0
TEXT
8
ANNOTATION
10
18.00
20
18.00
30
0
40
2.40
1
REV CONDITIONAL . GATES UNSIGNED = DO NOT CUT . mm . 2026-09-23 . SHEET 9 OF 25
72
0
0
TEXT
8
ANNOTATION
10
648.00
20
70.00
30
0
40
2.40
1
SHEET
72
0
0
TEXT
8
ANNOTATION
10
648.00
20
54.00
30
0
40
5.00
1
C-FR
72
0
0
TEXT
8
ANNOTATION
10
648.00
20
38.00
30
0
40
3.20
1
NTS
72
0
0
TEXT
8
ANNOTATION
10
648.00
20
22.00
30
0
40
2.30
1
VIEWS NAMED ON SHEET
72
0
0
TEXT
8
ANNOTATION
10
772.00
20
66.00
30
0
40
2.70
1
JAY GO
72
0
0
TEXT
8
ANNOTATION
10
756.00
20
50.00
30
0
40
2.50
1
RAIL DRILL
72
0
0
TEXT
8
ANNOTATION
10
756.00
20
36.00
30
0
40
2.40
1
UNSIGNED
72
0
0
TEXT
8
ANNOTATION
10
756.00
20
24.00
30
0
40
2.40
1
= NO-GO
72
0
0
ENDSEC
0
EOF
