999
CONDITIONAL INVENTORY - NOT CUT-READY - AS-DRAWN SHEET mm - NOT PART SCALE
0
SECTION
2
HEADER
9
$INSUNITS
70
4
0
ENDSEC
0
SECTION
2
ENTITIES
0
TEXT
8
STAMP
10
12.00
20
602.00
30
0
40
3.50
1
CONDITIONAL INVENTORY - NOT CUT-READY
72
0
0
TEXT
8
STAMP
10
12.00
20
608.00
30
0
40
3.50
1
AS-DRAWN A1 SHEET mm. NOT PART SCALE. UNDEVELOPED / NTS WHERE THE SVG SAYS SO.
72
0
0
TEXT
8
STAMP
10
12.00
20
614.00
30
0
40
3.50
1
DO NOT PLASMA. PRELIMINARY - VERIFY ON VEHICLE - NOT LTO-CERTIFIED.
72
0
0
LINE
8
FILL
10
16.00
20
558.00
30
0
11
536.00
21
558.00
31
0
0
LINE
8
FILL
10
536.00
20
558.00
30
0
11
536.00
21
540.00
31
0
0
LINE
8
FILL
10
536.00
20
540.00
30
0
11
16.00
21
540.00
31
0
0
LINE
8
FILL
10
16.00
20
540.00
30
0
11
16.00
21
558.00
31
0
0
LINE
8
AS-DRAWN
10
16.00
20
558.00
30
0
11
536.00
21
558.00
31
0
0
LINE
8
AS-DRAWN
10
536.00
20
558.00
30
0
11
536.00
21
360.00
31
0
0
LINE
8
AS-DRAWN
10
536.00
20
360.00
30
0
11
16.00
21
360.00
31
0
0
LINE
8
AS-DRAWN
10
16.00
20
360.00
30
0
11
16.00
21
558.00
31
0
0
LINE
8
AS-DRAWN
10
68.00
20
558.00
30
0
11
68.00
21
360.00
31
0
0
LINE
8
AS-DRAWN
10
218.00
20
558.00
30
0
11
218.00
21
360.00
31
0
0
LINE
8
AS-DRAWN
10
258.00
20
558.00
30
0
11
258.00
21
360.00
31
0
0
LINE
8
AS-DRAWN
10
306.00
20
558.00
30
0
11
306.00
21
360.00
31
0
0
LINE
8
AS-DRAWN
10
456.00
20
558.00
30
0
11
456.00
21
360.00
31
0
0
LINE
8
AS-DRAWN
10
16.00
20
540.00
30
0
11
536.00
21
540.00
31
0
0
LINE
8
AS-DRAWN
10
16.00
20
522.00
30
0
11
536.00
21
522.00
31
0
0
LINE
8
AS-DRAWN
10
16.00
20
504.00
30
0
11
536.00
21
504.00
31
0
0
LINE
8
AS-DRAWN
10
16.00
20
486.00
30
0
11
536.00
21
486.00
31
0
0
LINE
8
AS-DRAWN
10
16.00
20
468.00
30
0
11
536.00
21
468.00
31
0
0
LINE
8
AS-DRAWN
10
16.00
20
450.00
30
0
11
536.00
21
450.00
31
0
0
LINE
8
AS-DRAWN
10
16.00
20
432.00
30
0
11
536.00
21
432.00
31
0
0
LINE
8
AS-DRAWN
10
16.00
20
414.00
30
0
11
536.00
21
414.00
31
0
0
LINE
8
AS-DRAWN
10
16.00
20
396.00
30
0
11
536.00
21
396.00
31
0
0
LINE
8
AS-DRAWN
10
16.00
20
378.00
30
0
11
536.00
21
378.00
31
0
0
LINE
8
AS-DRAWN
10
560.00
20
544.00
30
0
11
800.00
21
544.00
31
0
0
LINE
8
AS-DRAWN
10
800.00
20
544.00
30
0
11
800.00
21
404.00
31
0
0
LINE
8
AS-DRAWN
10
800.00
20
404.00
30
0
11
560.00
21
404.00
31
0
0
LINE
8
AS-DRAWN
10
560.00
20
404.00
30
0
11
560.00
21
544.00
31
0
0
LINE
8
AS-DRAWN
10
18.00
20
144.00
30
0
11
186.00
21
144.00
31
0
0
LINE
8
AS-DRAWN
10
186.00
20
144.00
30
0
11
186.00
21
116.00
31
0
0
LINE
8
AS-DRAWN
10
186.00
20
116.00
30
0
11
18.00
21
116.00
31
0
0
LINE
8
AS-DRAWN
10
18.00
20
116.00
30
0
11
18.00
21
144.00
31
0
0
LINE
8
AS-DRAWN
10
22.00
20
136.00
30
0
11
28.00
21
136.00
31
0
0
LINE
8
AS-DRAWN
10
28.00
20
136.00
30
0
11
28.00
21
130.00
31
0
0
LINE
8
AS-DRAWN
10
28.00
20
130.00
30
0
11
22.00
21
130.00
31
0
0
LINE
8
AS-DRAWN
10
22.00
20
130.00
30
0
11
22.00
21
136.00
31
0
0
LINE
8
AS-DRAWN
10
194.00
20
144.00
30
0
11
362.00
21
144.00
31
0
0
LINE
8
AS-DRAWN
10
362.00
20
144.00
30
0
11
362.00
21
116.00
31
0
0
LINE
8
AS-DRAWN
10
362.00
20
116.00
30
0
11
194.00
21
116.00
31
0
0
LINE
8
AS-DRAWN
10
194.00
20
116.00
30
0
11
194.00
21
144.00
31
0
0
LINE
8
AS-DRAWN
10
198.00
20
136.00
30
0
11
204.00
21
136.00
31
0
0
LINE
8
AS-DRAWN
10
204.00
20
136.00
30
0
11
204.00
21
130.00
31
0
0
LINE
8
AS-DRAWN
10
204.00
20
130.00
30
0
11
198.00
21
130.00
31
0
0
LINE
8
AS-DRAWN
10
198.00
20
130.00
30
0
11
198.00
21
136.00
31
0
0
LINE
8
AS-DRAWN
10
8.00
20
586.00
30
0
11
833.00
21
586.00
31
0
0
LINE
8
AS-DRAWN
10
833.00
20
586.00
30
0
11
833.00
21
8.00
31
0
0
LINE
8
AS-DRAWN
10
833.00
20
8.00
30
0
11
8.00
21
8.00
31
0
0
LINE
8
AS-DRAWN
10
8.00
20
8.00
30
0
11
8.00
21
586.00
31
0
0
LINE
8
AS-DRAWN
10
10.00
20
88.00
30
0
11
831.00
21
88.00
31
0
0
LINE
8
AS-DRAWN
10
831.00
20
88.00
30
0
11
831.00
21
10.00
31
0
0
LINE
8
AS-DRAWN
10
831.00
20
10.00
30
0
11
10.00
21
10.00
31
0
0
LINE
8
AS-DRAWN
10
10.00
20
10.00
30
0
11
10.00
21
88.00
31
0
0
LINE
8
AS-DRAWN
10
640.00
20
88.00
30
0
11
640.00
21
10.00
31
0
0
LINE
8
AS-DRAWN
10
748.00
20
88.00
30
0
11
748.00
21
10.00
31
0
0
LINE
8
AS-DRAWN
10
762.00
20
72.00
30
0
11
768.50
21
72.00
31
0
0
LINE
8
AS-DRAWN
10
768.50
20
72.00
30
0
11
768.50
21
65.50
31
0
0
LINE
8
AS-DRAWN
10
768.50
20
65.50
30
0
11
762.00
21
65.50
31
0
0
LINE
8
AS-DRAWN
10
762.00
20
65.50
30
0
11
762.00
21
72.00
31
0
0
CIRCLE
8
AS-DRAWN
10
620.00
20
494.00
30
0
40
4.00
0
CIRCLE
8
AS-DRAWN
10
700.00
20
494.00
30
0
40
4.00
0
CIRCLE
8
AS-DRAWN
10
620.00
20
444.00
30
0
40
4.00
0
CIRCLE
8
AS-DRAWN
10
700.00
20
444.00
30
0
40
4.00
0
TEXT
8
ANNOTATION
10
18.00
20
572.00
30
0
40
2.55
1
NO PLATE SIZE, HOLE DIAMETER, OR BOLT GRADE IS RELEASED. JAY GO GATES RAIL HOLES.
72
0
0
TEXT
8
ANNOTATION
10
17.40
20
548.22
30
0
40
2.30
1
MK
72
0
0
TEXT
8
ANNOTATION
10
69.40
20
548.22
30
0
40
2.30
1
PLATE
72
0
0
TEXT
8
ANNOTATION
10
219.40
20
548.22
30
0
40
2.30
1
QTY
72
0
0
TEXT
8
ANNOTATION
10
259.40
20
548.22
30
0
40
2.30
1
HOLES
72
0
0
TEXT
8
ANNOTATION
10
307.40
20
548.22
30
0
40
2.30
1
LANDS ON
72
0
0
TEXT
8
ANNOTATION
10
457.40
20
548.22
30
0
40
2.30
1
STATUS
72
0
0
TEXT
8
ANNOTATION
10
17.40
20
530.22
30
0
40
2.30
1
PL-01
72
0
0
TEXT
8
ANNOTATION
10
69.40
20
530.22
30
0
40
2.30
1
Outrigger backing
72
0
0
TEXT
8
ANNOTATION
10
219.40
20
530.22
30
0
40
2.30
1
TBD
72
0
0
TEXT
8
ANNOTATION
10
259.40
20
530.22
30
0
40
2.30
1
TBD
72
0
0
TEXT
8
ANNOTATION
10
307.40
20
530.22
30
0
40
2.30
1
Bed / chassis rail
72
0
0
TEXT
8
ANNOTATION
10
457.40
20
530.22
30
0
40
2.30
1
Jay GO
72
0
0
TEXT
8
ANNOTATION
10
17.40
20
512.22
30
0
40
2.30
1
PL-02
72
0
0
TEXT
8
ANNOTATION
10
69.40
20
512.22
30
0
40
2.30
1
Outrigger top
72
0
0
TEXT
8
ANNOTATION
10
219.40
20
512.22
30
0
40
2.30
1
TBD
72
0
0
TEXT
8
ANNOTATION
10
259.40
20
512.22
30
0
40
2.30
1
TBD
72
0
0
TEXT
8
ANNOTATION
10
307.40
20
512.22
30
0
40
2.30
1
Outrigger + floor
72
0
0
TEXT
8
ANNOTATION
10
457.40
20
512.22
30
0
40
2.30
1
Eng GO
72
0
0
TEXT
8
ANNOTATION
10
17.40
20
494.22
30
0
40
2.30
1
PL-03
72
0
0
TEXT
8
ANNOTATION
10
69.40
20
494.22
30
0
40
2.30
1
Ladder stand-off
72
0
0
TEXT
8
ANNOTATION
10
219.40
20
494.22
30
0
40
2.30
1
TBD
72
0
0
TEXT
8
ANNOTATION
10
259.40
20
494.22
30
0
40
2.30
1
TBD
72
0
0
TEXT
8
ANNOTATION
10
307.40
20
494.22
30
0
40
2.30
1
Post or sill D-05
72
0
0
TEXT
8
ANNOTATION
10
457.40
20
494.22
30
0
40
2.30
1
Not a jack
72
0
0
TEXT
8
ANNOTATION
10
17.40
20
476.22
30
0
40
2.30
1
PL-04
72
0
0
TEXT
8
ANNOTATION
10
69.40
20
476.22
30
0
40
2.30
1
Hatch hinge
72
0
0
TEXT
8
ANNOTATION
10
219.40
20
476.22
30
0
40
2.30
1
TBD
72
0
0
TEXT
8
ANNOTATION
10
259.40
20
476.22
30
0
40
2.30
1
TBD
72
0
0
TEXT
8
ANNOTATION
10
307.40
20
476.22
30
0
40
2.30
1
Hatch frame F-03
72
0
0
TEXT
8
ANNOTATION
10
457.40
20
476.22
30
0
40
2.30
1
Not skin
72
0
0
TEXT
8
ANNOTATION
10
17.40
20
458.22
30
0
40
2.30
1
PL-05
72
0
0
TEXT
8
ANNOTATION
10
69.40
20
458.22
30
0
40
2.30
1
Hatch strut
72
0
0
TEXT
8
ANNOTATION
10
219.40
20
458.22
30
0
40
2.30
1
TBD
72
0
0
TEXT
8
ANNOTATION
10
259.40
20
458.22
30
0
40
2.30
1
TBD
72
0
0
TEXT
8
ANNOTATION
10
307.40
20
458.22
30
0
40
2.30
1
Hatch frame
72
0
0
TEXT
8
ANNOTATION
10
457.40
20
458.22
30
0
40
2.30
1
Not skin
72
0
0
TEXT
8
ANNOTATION
10
17.40
20
440.22
30
0
40
2.30
1
PL-06
72
0
0
TEXT
8
ANNOTATION
10
69.40
20
440.22
30
0
40
2.30
1
Landing-leg pad
72
0
0
TEXT
8
ANNOTATION
10
219.40
20
440.22
30
0
40
2.30
1
TBD
72
0
0
TEXT
8
ANNOTATION
10
259.40
20
440.22
30
0
40
2.30
1
TBD
72
0
0
TEXT
8
ANNOTATION
10
307.40
20
440.22
30
0
40
2.30
1
Tail frame D-02
72
0
0
TEXT
8
ANNOTATION
10
457.40
20
440.22
30
0
40
2.30
1
kg blank
72
0
0
TEXT
8
ANNOTATION
10
17.40
20
422.22
30
0
40
2.30
1
PL-07
72
0
0
TEXT
8
ANNOTATION
10
69.40
20
422.22
30
0
40
2.30
1
Door hinge reinforcer
72
0
0
TEXT
8
ANNOTATION
10
219.40
20
422.22
30
0
40
2.30
1
TBD
72
0
0
TEXT
8
ANNOTATION
10
259.40
20
422.22
30
0
40
2.30
1
TBD
72
0
0
TEXT
8
ANNOTATION
10
307.40
20
422.22
30
0
40
2.30
1
Jamb post
72
0
0
TEXT
8
ANNOTATION
10
457.40
20
422.22
30
0
40
2.30
1
Not skin
72
0
0
TEXT
8
ANNOTATION
10
17.40
20
404.22
30
0
40
2.30
1
PL-08
72
0
0
TEXT
8
ANNOTATION
10
69.40
20
404.22
30
0
40
2.30
1
Bed-tail fishplate
72
0
0
TEXT
8
ANNOTATION
10
219.40
20
404.22
30
0
40
2.30
1
2
72
0
0
TEXT
8
ANNOTATION
10
259.40
20
404.22
30
0
40
2.30
1
TBD
72
0
0
TEXT
8
ANNOTATION
10
307.40
20
404.22
30
0
40
2.30
1
Floor longs J-01
72
0
0
TEXT
8
ANNOTATION
10
457.40
20
404.22
30
0
40
2.30
1
Eng weld
72
0
0
TEXT
8
ANNOTATION
10
17.40
20
386.22
30
0
40
2.30
1
PL-09
72
0
0
TEXT
8
ANNOTATION
10
69.40
20
386.22
30
0
40
2.30
1
Gen isolator pad
72
0
0
TEXT
8
ANNOTATION
10
219.40
20
386.22
30
0
40
2.30
1
TBD
72
0
0
TEXT
8
ANNOTATION
10
259.40
20
386.22
30
0
40
2.30
1
TBD
72
0
0
TEXT
8
ANNOTATION
10
307.40
20
386.22
30
0
40
2.30
1
Sill / outrigger
72
0
0
TEXT
8
ANNOTATION
10
457.40
20
386.22
30
0
40
2.30
1
Provision
72
0
0
TEXT
8
ANNOTATION
10
17.40
20
368.22
30
0
40
2.30
1
PL-10
72
0
0
TEXT
8
ANNOTATION
10
69.40
20
368.22
30
0
40
2.30
1
AC curb cleat
72
0
0
TEXT
8
ANNOTATION
10
219.40
20
368.22
30
0
40
2.30
1
TBD
72
0
0
TEXT
8
ANNOTATION
10
259.40
20
368.22
30
0
40
2.30
1
TBD
72
0
0
TEXT
8
ANNOTATION
10
307.40
20
368.22
30
0
40
2.30
1
Roof rail D-08
72
0
0
TEXT
8
ANNOTATION
10
457.40
20
368.22
30
0
40
2.30
1
Provision
72
0
0
TEXT
8
ANNOTATION
10
580.00
20
524.00
30
0
40
2.40
1
GENERIC PLATE
72
0
0
TEXT
8
ANNOTATION
10
575.00
20
384.00
30
0
40
2.30
1
CENTERS TBD. NOT A PATTERN.
72
0
0
TEXT
8
ANNOTATION
10
18.00
20
194.00
30
0
40
2.55
1
PL-09 AND PL-10 ARE PROVISIONS. THEY DO NOT RELEASE A GENERATOR OR AN AC UNIT.
72
0
0
TEXT
8
ANNOTATION
10
18.00
20
176.00
30
0
40
2.55
1
EDGE DISTANCE TBD. DO NOT DRILL THE CHASSIS RAIL UNTIL JAY GO ON D-01.
72
0
0
TEXT
8
ANNOTATION
10
32.00
20
131.00
30
0
40
2.30
1
JAY GO UNSIGNED
72
0
0
TEXT
8
ANNOTATION
10
32.00
20
121.00
30
0
40
2.15
1
RAIL DRILL = NO-GO
72
0
0
TEXT
8
ANNOTATION
10
208.00
20
131.00
30
0
40
2.30
1
ENG GO UNSIGNED
72
0
0
TEXT
8
ANNOTATION
10
208.00
20
121.00
30
0
40
2.15
1
TUBE / WELD = TBD
72
0
0
TEXT
8
ANNOTATION
10
18.00
20
72.00
30
0
40
3.70
1
KE-Texh / TAMARAW . PHASE-1 SHELL
72
0
0
TEXT
8
ANNOTATION
10
18.00
20
59.00
30
0
40
3.15
1
C-PL MOUNT PLATES AND GUSSETS - HOLES TBD
72
0
0
TEXT
8
ANNOTATION
10
18.00
20
44.00
30
0
40
3.35
1
PRELIMINARY - VERIFY ON VEHICLE - NOT LTO-CERTIFIED
72
0
0
TEXT
8
ANNOTATION
10
18.00
20
30.00
30
0
40
2.45
1
GATES: AS-FOUND TAPE . JAY GO RAIL DRILL . ENG TUBE/WELD . OUTRIGGERS+LEGS+WEIGH . HOSE . HATCH . GEN/AC PROVISION . D-01...D-08
72
0
0
TEXT
8
ANNOTATION
10
18.00
20
18.00
30
0
40
2.40
1
REV CONDITIONAL . GATES UNSIGNED = DO NOT CUT . mm . 2026-09-23 . SHEET 10 OF 25
72
0
0
TEXT
8
ANNOTATION
10
648.00
20
70.00
30
0
40
2.40
1
SHEET
72
0
0
TEXT
8
ANNOTATION
10
648.00
20
54.00
30
0
40
5.00
1
C-PL
72
0
0
TEXT
8
ANNOTATION
10
648.00
20
38.00
30
0
40
3.20
1
NTS
72
0
0
TEXT
8
ANNOTATION
10
648.00
20
22.00
30
0
40
2.30
1
VIEWS NAMED ON SHEET
72
0
0
TEXT
8
ANNOTATION
10
772.00
20
66.00
30
0
40
2.70
1
JAY GO
72
0
0
TEXT
8
ANNOTATION
10
756.00
20
50.00
30
0
40
2.50
1
RAIL DRILL
72
0
0
TEXT
8
ANNOTATION
10
756.00
20
36.00
30
0
40
2.40
1
UNSIGNED
72
0
0
TEXT
8
ANNOTATION
10
756.00
20
24.00
30
0
40
2.40
1
= NO-GO
72
0
0
ENDSEC
0
EOF
