999
CONDITIONAL INVENTORY - NOT CUT-READY - AS-DRAWN SHEET mm - NOT PART SCALE
0
SECTION
2
HEADER
9
$INSUNITS
70
4
0
ENDSEC
0
SECTION
2
ENTITIES
0
TEXT
8
STAMP
10
12.00
20
602.00
30
0
40
3.50
1
CONDITIONAL INVENTORY - NOT CUT-READY
72
0
0
TEXT
8
STAMP
10
12.00
20
608.00
30
0
40
3.50
1
AS-DRAWN A1 SHEET mm. NOT PART SCALE. UNDEVELOPED / NTS WHERE THE SVG SAYS SO.
72
0
0
TEXT
8
STAMP
10
12.00
20
614.00
30
0
40
3.50
1
DO NOT PLASMA. PRELIMINARY - VERIFY ON VEHICLE - NOT LTO-CERTIFIED.
72
0
0
LINE
8
AS-DRAWN
10
70.00
20
546.00
30
0
11
220.00
21
546.00
31
0
0
LINE
8
AS-DRAWN
10
220.00
20
546.00
30
0
11
220.00
21
246.00
31
0
0
LINE
8
AS-DRAWN
10
220.00
20
246.00
30
0
11
70.00
21
246.00
31
0
0
LINE
8
AS-DRAWN
10
70.00
20
246.00
30
0
11
70.00
21
546.00
31
0
0
LINE
8
DASHED
10
86.00
20
530.00
30
0
11
204.00
21
530.00
31
0
0
LINE
8
DASHED
10
204.00
20
530.00
30
0
11
204.00
21
262.00
31
0
0
LINE
8
DASHED
10
204.00
20
262.00
30
0
11
86.00
21
262.00
31
0
0
LINE
8
DASHED
10
86.00
20
262.00
30
0
11
86.00
21
530.00
31
0
0
LINE
8
FILL
10
74.00
20
494.00
30
0
11
84.00
21
494.00
31
0
0
LINE
8
FILL
10
84.00
20
494.00
30
0
11
84.00
21
478.00
31
0
0
LINE
8
FILL
10
84.00
20
478.00
30
0
11
74.00
21
478.00
31
0
0
LINE
8
FILL
10
74.00
20
478.00
30
0
11
74.00
21
494.00
31
0
0
LINE
8
FILL
10
74.00
20
434.00
30
0
11
84.00
21
434.00
31
0
0
LINE
8
FILL
10
84.00
20
434.00
30
0
11
84.00
21
418.00
31
0
0
LINE
8
FILL
10
84.00
20
418.00
30
0
11
74.00
21
418.00
31
0
0
LINE
8
FILL
10
74.00
20
418.00
30
0
11
74.00
21
434.00
31
0
0
LINE
8
FILL
10
74.00
20
364.00
30
0
11
84.00
21
364.00
31
0
0
LINE
8
FILL
10
84.00
20
364.00
30
0
11
84.00
21
348.00
31
0
0
LINE
8
FILL
10
84.00
20
348.00
30
0
11
74.00
21
348.00
31
0
0
LINE
8
FILL
10
74.00
20
348.00
30
0
11
74.00
21
364.00
31
0
0
LINE
8
AS-DRAWN
10
18.00
20
146.00
30
0
11
186.00
21
146.00
31
0
0
LINE
8
AS-DRAWN
10
186.00
20
146.00
30
0
11
186.00
21
118.00
31
0
0
LINE
8
AS-DRAWN
10
186.00
20
118.00
30
0
11
18.00
21
118.00
31
0
0
LINE
8
AS-DRAWN
10
18.00
20
118.00
30
0
11
18.00
21
146.00
31
0
0
LINE
8
AS-DRAWN
10
22.00
20
138.00
30
0
11
28.00
21
138.00
31
0
0
LINE
8
AS-DRAWN
10
28.00
20
138.00
30
0
11
28.00
21
132.00
31
0
0
LINE
8
AS-DRAWN
10
28.00
20
132.00
30
0
11
22.00
21
132.00
31
0
0
LINE
8
AS-DRAWN
10
22.00
20
132.00
30
0
11
22.00
21
138.00
31
0
0
LINE
8
AS-DRAWN
10
194.00
20
146.00
30
0
11
362.00
21
146.00
31
0
0
LINE
8
AS-DRAWN
10
362.00
20
146.00
30
0
11
362.00
21
118.00
31
0
0
LINE
8
AS-DRAWN
10
362.00
20
118.00
30
0
11
194.00
21
118.00
31
0
0
LINE
8
AS-DRAWN
10
194.00
20
118.00
30
0
11
194.00
21
146.00
31
0
0
LINE
8
AS-DRAWN
10
198.00
20
138.00
30
0
11
204.00
21
138.00
31
0
0
LINE
8
AS-DRAWN
10
204.00
20
138.00
30
0
11
204.00
21
132.00
31
0
0
LINE
8
AS-DRAWN
10
204.00
20
132.00
30
0
11
198.00
21
132.00
31
0
0
LINE
8
AS-DRAWN
10
198.00
20
132.00
30
0
11
198.00
21
138.00
31
0
0
LINE
8
AS-DRAWN
10
8.00
20
586.00
30
0
11
833.00
21
586.00
31
0
0
LINE
8
AS-DRAWN
10
833.00
20
586.00
30
0
11
833.00
21
8.00
31
0
0
LINE
8
AS-DRAWN
10
833.00
20
8.00
30
0
11
8.00
21
8.00
31
0
0
LINE
8
AS-DRAWN
10
8.00
20
8.00
30
0
11
8.00
21
586.00
31
0
0
LINE
8
AS-DRAWN
10
10.00
20
88.00
30
0
11
831.00
21
88.00
31
0
0
LINE
8
AS-DRAWN
10
831.00
20
88.00
30
0
11
831.00
21
10.00
31
0
0
LINE
8
AS-DRAWN
10
831.00
20
10.00
30
0
11
10.00
21
10.00
31
0
0
LINE
8
AS-DRAWN
10
10.00
20
10.00
30
0
11
10.00
21
88.00
31
0
0
LINE
8
AS-DRAWN
10
640.00
20
88.00
30
0
11
640.00
21
10.00
31
0
0
LINE
8
AS-DRAWN
10
748.00
20
88.00
30
0
11
748.00
21
10.00
31
0
0
LINE
8
AS-DRAWN
10
762.00
20
72.00
30
0
11
768.50
21
72.00
31
0
0
LINE
8
AS-DRAWN
10
768.50
20
72.00
30
0
11
768.50
21
65.50
31
0
0
LINE
8
AS-DRAWN
10
768.50
20
65.50
30
0
11
762.00
21
65.50
31
0
0
LINE
8
AS-DRAWN
10
762.00
20
65.50
30
0
11
762.00
21
72.00
31
0
0
TEXT
8
ANNOTATION
10
18.00
20
572.00
30
0
40
2.50
1
CLEAR TARGET 700 x 1550. LEAF OVERALL = THAT OPENING PLUS EDGE OVERLAP TBD. NO OVERLAP mm.
72
0
0
TEXT
8
ANNOTATION
10
96.00
20
414.00
30
0
40
2.40
1
CLEAR
72
0
0
TEXT
8
ANNOTATION
10
96.00
20
400.00
30
0
40
2.30
1
700 x 1550
72
0
0
TEXT
8
ANNOTATION
10
250.00
20
524.00
30
0
40
2.50
1
OUTER RECT = LEAF
72
0
0
TEXT
8
ANNOTATION
10
250.00
20
506.00
30
0
40
2.50
1
OVERLAP BAND = TBD
72
0
0
TEXT
8
ANNOTATION
10
250.00
20
488.00
30
0
40
2.50
1
NO MILLIMETRE GIVEN
72
0
0
TEXT
8
ANNOTATION
10
250.00
20
462.00
30
0
40
2.50
1
DASHED = CLEAR OPENING
72
0
0
TEXT
8
ANNOTATION
10
250.00
20
444.00
30
0
40
2.50
1
FIELD LOCATE ON P2
72
0
0
TEXT
8
ANNOTATION
10
250.00
20
418.00
30
0
40
2.50
1
BLACK PADS = HINGES
72
0
0
TEXT
8
ANNOTATION
10
250.00
20
400.00
30
0
40
2.50
1
CENTERS TBD
72
0
0
TEXT
8
ANNOTATION
10
250.00
20
382.00
30
0
40
2.50
1
BOLT TO THE JAMB POST
72
0
0
TEXT
8
ANNOTATION
10
250.00
20
364.00
30
0
40
2.50
1
FAIL-IF SKIN-ONLY
72
0
0
TEXT
8
ANNOTATION
10
250.00
20
338.00
30
0
40
2.50
1
LATCH SIDE TBD
72
0
0
TEXT
8
ANNOTATION
10
250.00
20
320.00
30
0
40
2.50
1
SEAL PATH IN THE BAND
72
0
0
TEXT
8
ANNOTATION
10
250.00
20
302.00
30
0
40
2.50
1
SEAL SECTION TBD
72
0
0
TEXT
8
ANNOTATION
10
18.00
20
174.00
30
0
40
2.55
1
DO NOT SCALE THIS LEAF. CUT ONLY AFTER THE OPENING IS FIELD-LOCATED AND THE OVERLAP IS RELEASED.
72
0
0
TEXT
8
ANNOTATION
10
32.00
20
133.00
30
0
40
2.30
1
JAY GO UNSIGNED
72
0
0
TEXT
8
ANNOTATION
10
32.00
20
123.00
30
0
40
2.15
1
RAIL DRILL = NO-GO
72
0
0
TEXT
8
ANNOTATION
10
208.00
20
133.00
30
0
40
2.30
1
ENG GO UNSIGNED
72
0
0
TEXT
8
ANNOTATION
10
208.00
20
123.00
30
0
40
2.15
1
TUBE / WELD = TBD
72
0
0
TEXT
8
ANNOTATION
10
18.00
20
72.00
30
0
40
3.70
1
KE-Texh / TAMARAW . PHASE-1 SHELL
72
0
0
TEXT
8
ANNOTATION
10
18.00
20
59.00
30
0
40
3.15
1
DR-01 ENTRY DOOR LEAF - 700 x 1550 FIELD LOCATE
72
0
0
TEXT
8
ANNOTATION
10
18.00
20
44.00
30
0
40
3.35
1
PRELIMINARY - VERIFY ON VEHICLE - NOT LTO-CERTIFIED
72
0
0
TEXT
8
ANNOTATION
10
18.00
20
30.00
30
0
40
2.45
1
GATES: AS-FOUND TAPE . JAY GO RAIL DRILL . ENG TUBE/WELD . OUTRIGGERS+LEGS+WEIGH . HOSE . HATCH . GEN/AC PROVISION . D-01...D-08
72
0
0
TEXT
8
ANNOTATION
10
18.00
20
18.00
30
0
40
2.40
1
REV CONDITIONAL . GATES UNSIGNED = DO NOT CUT . mm . 2026-09-23 . SHEET 15 OF 25
72
0
0
TEXT
8
ANNOTATION
10
648.00
20
70.00
30
0
40
2.40
1
SHEET
72
0
0
TEXT
8
ANNOTATION
10
648.00
20
54.00
30
0
40
5.00
1
DR-01
72
0
0
TEXT
8
ANNOTATION
10
648.00
20
38.00
30
0
40
3.20
1
NTS
72
0
0
TEXT
8
ANNOTATION
10
648.00
20
22.00
30
0
40
2.30
1
VIEWS NAMED ON SHEET
72
0
0
TEXT
8
ANNOTATION
10
772.00
20
66.00
30
0
40
2.70
1
JAY GO
72
0
0
TEXT
8
ANNOTATION
10
756.00
20
50.00
30
0
40
2.50
1
RAIL DRILL
72
0
0
TEXT
8
ANNOTATION
10
756.00
20
36.00
30
0
40
2.40
1
UNSIGNED
72
0
0
TEXT
8
ANNOTATION
10
756.00
20
24.00
30
0
40
2.40
1
= NO-GO
72
0
0
ENDSEC
0
EOF
