999
CONDITIONAL INVENTORY - NOT CUT-READY - AS-DRAWN SHEET mm - NOT PART SCALE
0
SECTION
2
HEADER
9
$INSUNITS
70
4
0
ENDSEC
0
SECTION
2
ENTITIES
0
TEXT
8
STAMP
10
12.00
20
602.00
30
0
40
3.50
1
CONDITIONAL INVENTORY - NOT CUT-READY
72
0
0
TEXT
8
STAMP
10
12.00
20
608.00
30
0
40
3.50
1
AS-DRAWN A1 SHEET mm. NOT PART SCALE. UNDEVELOPED / NTS WHERE THE SVG SAYS SO.
72
0
0
TEXT
8
STAMP
10
12.00
20
614.00
30
0
40
3.50
1
DO NOT PLASMA. PRELIMINARY - VERIFY ON VEHICLE - NOT LTO-CERTIFIED.
72
0
0
LINE
8
AS-DRAWN
10
80.00
20
538.00
30
0
11
280.00
21
538.00
31
0
0
LINE
8
AS-DRAWN
10
280.00
20
538.00
30
0
11
280.00
21
258.00
31
0
0
LINE
8
AS-DRAWN
10
280.00
20
258.00
30
0
11
80.00
21
258.00
31
0
0
LINE
8
AS-DRAWN
10
80.00
20
258.00
30
0
11
80.00
21
538.00
31
0
0
LINE
8
DASHED
10
100.00
20
514.00
30
0
11
260.00
21
514.00
31
0
0
LINE
8
DASHED
10
260.00
20
514.00
30
0
11
260.00
21
294.00
31
0
0
LINE
8
DASHED
10
260.00
20
294.00
30
0
11
100.00
21
294.00
31
0
0
LINE
8
DASHED
10
100.00
20
294.00
30
0
11
100.00
21
514.00
31
0
0
LINE
8
AS-DRAWN
10
90.00
20
278.00
30
0
11
270.00
21
278.00
31
0
0
LINE
8
AS-DRAWN
10
180.00
20
270.00
30
0
11
180.00
21
246.00
31
0
0
LINE
8
FILL
10
180.00
20
246.00
30
0
11
176.00
21
254.00
31
0
0
LINE
8
FILL
10
176.00
20
254.00
30
0
11
184.00
21
254.00
31
0
0
LINE
8
FILL
10
184.00
20
254.00
30
0
11
180.00
21
246.00
31
0
0
LINE
8
AS-DRAWN
10
18.00
20
146.00
30
0
11
186.00
21
146.00
31
0
0
LINE
8
AS-DRAWN
10
186.00
20
146.00
30
0
11
186.00
21
118.00
31
0
0
LINE
8
AS-DRAWN
10
186.00
20
118.00
30
0
11
18.00
21
118.00
31
0
0
LINE
8
AS-DRAWN
10
18.00
20
118.00
30
0
11
18.00
21
146.00
31
0
0
LINE
8
AS-DRAWN
10
22.00
20
138.00
30
0
11
28.00
21
138.00
31
0
0
LINE
8
AS-DRAWN
10
28.00
20
138.00
30
0
11
28.00
21
132.00
31
0
0
LINE
8
AS-DRAWN
10
28.00
20
132.00
30
0
11
22.00
21
132.00
31
0
0
LINE
8
AS-DRAWN
10
22.00
20
132.00
30
0
11
22.00
21
138.00
31
0
0
LINE
8
AS-DRAWN
10
194.00
20
146.00
30
0
11
362.00
21
146.00
31
0
0
LINE
8
AS-DRAWN
10
362.00
20
146.00
30
0
11
362.00
21
118.00
31
0
0
LINE
8
AS-DRAWN
10
362.00
20
118.00
30
0
11
194.00
21
118.00
31
0
0
LINE
8
AS-DRAWN
10
194.00
20
118.00
30
0
11
194.00
21
146.00
31
0
0
LINE
8
AS-DRAWN
10
198.00
20
138.00
30
0
11
204.00
21
138.00
31
0
0
LINE
8
AS-DRAWN
10
204.00
20
138.00
30
0
11
204.00
21
132.00
31
0
0
LINE
8
AS-DRAWN
10
204.00
20
132.00
30
0
11
198.00
21
132.00
31
0
0
LINE
8
AS-DRAWN
10
198.00
20
132.00
30
0
11
198.00
21
138.00
31
0
0
LINE
8
AS-DRAWN
10
8.00
20
586.00
30
0
11
833.00
21
586.00
31
0
0
LINE
8
AS-DRAWN
10
833.00
20
586.00
30
0
11
833.00
21
8.00
31
0
0
LINE
8
AS-DRAWN
10
833.00
20
8.00
30
0
11
8.00
21
8.00
31
0
0
LINE
8
AS-DRAWN
10
8.00
20
8.00
30
0
11
8.00
21
586.00
31
0
0
LINE
8
AS-DRAWN
10
10.00
20
88.00
30
0
11
831.00
21
88.00
31
0
0
LINE
8
AS-DRAWN
10
831.00
20
88.00
30
0
11
831.00
21
10.00
31
0
0
LINE
8
AS-DRAWN
10
831.00
20
10.00
30
0
11
10.00
21
10.00
31
0
0
LINE
8
AS-DRAWN
10
10.00
20
10.00
30
0
11
10.00
21
88.00
31
0
0
LINE
8
AS-DRAWN
10
640.00
20
88.00
30
0
11
640.00
21
10.00
31
0
0
LINE
8
AS-DRAWN
10
748.00
20
88.00
30
0
11
748.00
21
10.00
31
0
0
LINE
8
AS-DRAWN
10
762.00
20
72.00
30
0
11
768.50
21
72.00
31
0
0
LINE
8
AS-DRAWN
10
768.50
20
72.00
30
0
11
768.50
21
65.50
31
0
0
LINE
8
AS-DRAWN
10
768.50
20
65.50
30
0
11
762.00
21
65.50
31
0
0
LINE
8
AS-DRAWN
10
762.00
20
65.50
30
0
11
762.00
21
72.00
31
0
0
TEXT
8
ANNOTATION
10
18.00
20
572.00
30
0
40
2.50
1
JAMB LANDS ON POSTS AND SILLS. THIS SHEET DOES NOT SET X FROM THE CAB OR Z FROM THE FLOOR.
72
0
0
TEXT
8
ANNOTATION
10
110.00
20
520.00
30
0
40
2.30
1
HEAD - 700+TBD
72
0
0
TEXT
8
ANNOTATION
10
108.00
20
394.00
30
0
40
2.40
1
FIELD LOCATE
72
0
0
TEXT
8
ANNOTATION
10
320.00
20
514.00
30
0
40
2.60
1
STILES
72
0
0
TEXT
8
ANNOTATION
10
320.00
20
496.00
30
0
40
2.40
1
1550 + BUILDUP TBD
72
0
0
TEXT
8
ANNOTATION
10
320.00
20
472.00
30
0
40
2.60
1
HEAD AND THRESHOLD
72
0
0
TEXT
8
ANNOTATION
10
320.00
20
454.00
30
0
40
2.40
1
700 + BUILDUP TBD
72
0
0
TEXT
8
ANNOTATION
10
320.00
20
430.00
30
0
40
2.40
1
DO NOT CUT 1550
72
0
0
TEXT
8
ANNOTATION
10
320.00
20
412.00
30
0
40
2.40
1
AS THE STILE.
72
0
0
TEXT
8
ANNOTATION
10
320.00
20
388.00
30
0
40
2.60
1
WEEP ARROW
72
0
0
TEXT
8
ANNOTATION
10
320.00
20
370.00
30
0
40
2.40
1
DRAINS OUTWARD
72
0
0
TEXT
8
ANNOTATION
10
320.00
20
346.00
30
0
40
2.40
1
NOT INTO THE LOFT
72
0
0
TEXT
8
ANNOTATION
10
320.00
20
322.00
30
0
40
2.40
1
SEE C-02 FOR THE
72
0
0
TEXT
8
ANNOTATION
10
320.00
20
304.00
30
0
40
2.40
1
WALL SYMBOL
72
0
0
TEXT
8
ANNOTATION
10
18.00
20
174.00
30
0
40
2.55
1
HINGE REINFORCER IS PL-07 ON THE POST. FAIL-IF THE HINGE IS IN THE SKIN ONLY.
72
0
0
TEXT
8
ANNOTATION
10
32.00
20
133.00
30
0
40
2.30
1
JAY GO UNSIGNED
72
0
0
TEXT
8
ANNOTATION
10
32.00
20
123.00
30
0
40
2.15
1
RAIL DRILL = NO-GO
72
0
0
TEXT
8
ANNOTATION
10
208.00
20
133.00
30
0
40
2.30
1
ENG GO UNSIGNED
72
0
0
TEXT
8
ANNOTATION
10
208.00
20
123.00
30
0
40
2.15
1
TUBE / WELD = TBD
72
0
0
TEXT
8
ANNOTATION
10
18.00
20
72.00
30
0
40
3.70
1
KE-Texh / TAMARAW . PHASE-1 SHELL
72
0
0
TEXT
8
ANNOTATION
10
18.00
20
59.00
30
0
40
3.15
1
DR-02 DOOR JAMB IN THE WALL - THRESHOLD WEEP
72
0
0
TEXT
8
ANNOTATION
10
18.00
20
44.00
30
0
40
3.35
1
PRELIMINARY - VERIFY ON VEHICLE - NOT LTO-CERTIFIED
72
0
0
TEXT
8
ANNOTATION
10
18.00
20
30.00
30
0
40
2.45
1
GATES: AS-FOUND TAPE . JAY GO RAIL DRILL . ENG TUBE/WELD . OUTRIGGERS+LEGS+WEIGH . HOSE . HATCH . GEN/AC PROVISION . D-01...D-08
72
0
0
TEXT
8
ANNOTATION
10
18.00
20
18.00
30
0
40
2.40
1
REV CONDITIONAL . GATES UNSIGNED = DO NOT CUT . mm . 2026-09-23 . SHEET 16 OF 25
72
0
0
TEXT
8
ANNOTATION
10
648.00
20
70.00
30
0
40
2.40
1
SHEET
72
0
0
TEXT
8
ANNOTATION
10
648.00
20
54.00
30
0
40
5.00
1
DR-02
72
0
0
TEXT
8
ANNOTATION
10
648.00
20
38.00
30
0
40
3.20
1
NTS
72
0
0
TEXT
8
ANNOTATION
10
648.00
20
22.00
30
0
40
2.30
1
VIEWS NAMED ON SHEET
72
0
0
TEXT
8
ANNOTATION
10
772.00
20
66.00
30
0
40
2.70
1
JAY GO
72
0
0
TEXT
8
ANNOTATION
10
756.00
20
50.00
30
0
40
2.50
1
RAIL DRILL
72
0
0
TEXT
8
ANNOTATION
10
756.00
20
36.00
30
0
40
2.40
1
UNSIGNED
72
0
0
TEXT
8
ANNOTATION
10
756.00
20
24.00
30
0
40
2.40
1
= NO-GO
72
0
0
ENDSEC
0
EOF
