999
CONDITIONAL INVENTORY - NOT CUT-READY - AS-DRAWN SHEET mm - NOT PART SCALE
0
SECTION
2
HEADER
9
$INSUNITS
70
4
0
ENDSEC
0
SECTION
2
ENTITIES
0
TEXT
8
STAMP
10
12.00
20
602.00
30
0
40
3.50
1
CONDITIONAL INVENTORY - NOT CUT-READY
72
0
0
TEXT
8
STAMP
10
12.00
20
608.00
30
0
40
3.50
1
AS-DRAWN A1 SHEET mm. NOT PART SCALE. UNDEVELOPED / NTS WHERE THE SVG SAYS SO.
72
0
0
TEXT
8
STAMP
10
12.00
20
614.00
30
0
40
3.50
1
DO NOT PLASMA. PRELIMINARY - VERIFY ON VEHICLE - NOT LTO-CERTIFIED.
72
0
0
LINE
8
AS-DRAWN
10
80.00
20
538.00
30
0
11
300.00
21
538.00
31
0
0
LINE
8
AS-DRAWN
10
300.00
20
538.00
30
0
11
300.00
21
288.00
31
0
0
LINE
8
AS-DRAWN
10
300.00
20
288.00
30
0
11
80.00
21
288.00
31
0
0
LINE
8
AS-DRAWN
10
80.00
20
288.00
30
0
11
80.00
21
538.00
31
0
0
LINE
8
DASHED
10
110.00
20
414.00
30
0
11
260.00
21
414.00
31
0
0
LINE
8
DASHED
10
260.00
20
414.00
30
0
11
260.00
21
334.00
31
0
0
LINE
8
DASHED
10
260.00
20
334.00
30
0
11
110.00
21
334.00
31
0
0
LINE
8
DASHED
10
110.00
20
334.00
30
0
11
110.00
21
414.00
31
0
0
LINE
8
AS-DRAWN
10
18.00
20
146.00
30
0
11
186.00
21
146.00
31
0
0
LINE
8
AS-DRAWN
10
186.00
20
146.00
30
0
11
186.00
21
118.00
31
0
0
LINE
8
AS-DRAWN
10
186.00
20
118.00
30
0
11
18.00
21
118.00
31
0
0
LINE
8
AS-DRAWN
10
18.00
20
118.00
30
0
11
18.00
21
146.00
31
0
0
LINE
8
AS-DRAWN
10
22.00
20
138.00
30
0
11
28.00
21
138.00
31
0
0
LINE
8
AS-DRAWN
10
28.00
20
138.00
30
0
11
28.00
21
132.00
31
0
0
LINE
8
AS-DRAWN
10
28.00
20
132.00
30
0
11
22.00
21
132.00
31
0
0
LINE
8
AS-DRAWN
10
22.00
20
132.00
30
0
11
22.00
21
138.00
31
0
0
LINE
8
AS-DRAWN
10
194.00
20
146.00
30
0
11
362.00
21
146.00
31
0
0
LINE
8
AS-DRAWN
10
362.00
20
146.00
30
0
11
362.00
21
118.00
31
0
0
LINE
8
AS-DRAWN
10
362.00
20
118.00
30
0
11
194.00
21
118.00
31
0
0
LINE
8
AS-DRAWN
10
194.00
20
118.00
30
0
11
194.00
21
146.00
31
0
0
LINE
8
AS-DRAWN
10
198.00
20
138.00
30
0
11
204.00
21
138.00
31
0
0
LINE
8
AS-DRAWN
10
204.00
20
138.00
30
0
11
204.00
21
132.00
31
0
0
LINE
8
AS-DRAWN
10
204.00
20
132.00
30
0
11
198.00
21
132.00
31
0
0
LINE
8
AS-DRAWN
10
198.00
20
132.00
30
0
11
198.00
21
138.00
31
0
0
LINE
8
AS-DRAWN
10
8.00
20
586.00
30
0
11
833.00
21
586.00
31
0
0
LINE
8
AS-DRAWN
10
833.00
20
586.00
30
0
11
833.00
21
8.00
31
0
0
LINE
8
AS-DRAWN
10
833.00
20
8.00
30
0
11
8.00
21
8.00
31
0
0
LINE
8
AS-DRAWN
10
8.00
20
8.00
30
0
11
8.00
21
586.00
31
0
0
LINE
8
AS-DRAWN
10
10.00
20
88.00
30
0
11
831.00
21
88.00
31
0
0
LINE
8
AS-DRAWN
10
831.00
20
88.00
30
0
11
831.00
21
10.00
31
0
0
LINE
8
AS-DRAWN
10
831.00
20
10.00
30
0
11
10.00
21
10.00
31
0
0
LINE
8
AS-DRAWN
10
10.00
20
10.00
30
0
11
10.00
21
88.00
31
0
0
LINE
8
AS-DRAWN
10
640.00
20
88.00
30
0
11
640.00
21
10.00
31
0
0
LINE
8
AS-DRAWN
10
748.00
20
88.00
30
0
11
748.00
21
10.00
31
0
0
LINE
8
AS-DRAWN
10
762.00
20
72.00
30
0
11
768.50
21
72.00
31
0
0
LINE
8
AS-DRAWN
10
768.50
20
72.00
30
0
11
768.50
21
65.50
31
0
0
LINE
8
AS-DRAWN
10
768.50
20
65.50
30
0
11
762.00
21
65.50
31
0
0
LINE
8
AS-DRAWN
10
762.00
20
65.50
30
0
11
762.00
21
72.00
31
0
0
TEXT
8
ANNOTATION
10
18.00
20
572.00
30
0
40
2.60
1
S-06 INTENT. NO CUT SIZE. SEAL REQUIRED. HINGE EDGE IS TBD.
72
0
0
TEXT
8
ANNOTATION
10
120.00
20
384.00
30
0
40
2.50
1
INTENT
72
0
0
TEXT
8
ANNOTATION
10
120.00
20
368.00
30
0
40
2.40
1
NOT A CUT
72
0
0
TEXT
8
ANNOTATION
10
360.00
20
514.00
30
0
40
2.60
1
HINGE EDGE TBD
72
0
0
TEXT
8
ANNOTATION
10
360.00
20
494.00
30
0
40
2.40
1
DO NOT ASSUME BOTTOM,
72
0
0
TEXT
8
ANNOTATION
10
360.00
20
478.00
30
0
40
2.40
1
SIDE, OR TOP.
72
0
0
TEXT
8
ANNOTATION
10
360.00
20
454.00
30
0
40
2.60
1
SEAL PATH TBD
72
0
0
TEXT
8
ANNOTATION
10
360.00
20
434.00
30
0
40
2.40
1
CONTINUOUS WHEN CLOSED
72
0
0
TEXT
8
ANNOTATION
10
360.00
20
410.00
30
0
40
2.50
1
FRAME IS FR-22
72
0
0
TEXT
8
ANNOTATION
10
360.00
20
392.00
30
0
40
2.40
1
LENGTHS TBD
72
0
0
TEXT
8
ANNOTATION
10
360.00
20
368.00
30
0
40
2.50
1
NOT A ROAD OPENING
72
0
0
TEXT
8
ANNOTATION
10
360.00
20
350.00
30
0
40
2.40
1
UNTIL THE SEAL IS IN
72
0
0
TEXT
8
ANNOTATION
10
18.00
20
174.00
30
0
40
2.55
1
DO NOT SCALE THE DASHED RECTANGLE. C-05 SHOWS THE SAME RULE ON THE WALL BLANK.
72
0
0
TEXT
8
ANNOTATION
10
32.00
20
133.00
30
0
40
2.30
1
JAY GO UNSIGNED
72
0
0
TEXT
8
ANNOTATION
10
32.00
20
123.00
30
0
40
2.15
1
RAIL DRILL = NO-GO
72
0
0
TEXT
8
ANNOTATION
10
208.00
20
133.00
30
0
40
2.30
1
ENG GO UNSIGNED
72
0
0
TEXT
8
ANNOTATION
10
208.00
20
123.00
30
0
40
2.15
1
TUBE / WELD = TBD
72
0
0
TEXT
8
ANNOTATION
10
18.00
20
72.00
30
0
40
3.70
1
KE-Texh / TAMARAW . PHASE-1 SHELL
72
0
0
TEXT
8
ANNOTATION
10
18.00
20
59.00
30
0
40
3.15
1
H-02 REAR LOWER HATCH - SIZE TBD
72
0
0
TEXT
8
ANNOTATION
10
18.00
20
44.00
30
0
40
3.35
1
PRELIMINARY - VERIFY ON VEHICLE - NOT LTO-CERTIFIED
72
0
0
TEXT
8
ANNOTATION
10
18.00
20
30.00
30
0
40
2.45
1
GATES: AS-FOUND TAPE . JAY GO RAIL DRILL . ENG TUBE/WELD . OUTRIGGERS+LEGS+WEIGH . HOSE . HATCH . GEN/AC PROVISION . D-01...D-08
72
0
0
TEXT
8
ANNOTATION
10
18.00
20
18.00
30
0
40
2.40
1
REV CONDITIONAL . GATES UNSIGNED = DO NOT CUT . mm . 2026-09-23 . SHEET 18 OF 25
72
0
0
TEXT
8
ANNOTATION
10
648.00
20
70.00
30
0
40
2.40
1
SHEET
72
0
0
TEXT
8
ANNOTATION
10
648.00
20
54.00
30
0
40
5.00
1
H-02
72
0
0
TEXT
8
ANNOTATION
10
648.00
20
38.00
30
0
40
3.20
1
NTS
72
0
0
TEXT
8
ANNOTATION
10
648.00
20
22.00
30
0
40
2.30
1
VIEWS NAMED ON SHEET
72
0
0
TEXT
8
ANNOTATION
10
772.00
20
66.00
30
0
40
2.70
1
JAY GO
72
0
0
TEXT
8
ANNOTATION
10
756.00
20
50.00
30
0
40
2.50
1
RAIL DRILL
72
0
0
TEXT
8
ANNOTATION
10
756.00
20
36.00
30
0
40
2.40
1
UNSIGNED
72
0
0
TEXT
8
ANNOTATION
10
756.00
20
24.00
30
0
40
2.40
1
= NO-GO
72
0
0
ENDSEC
0
EOF
